<svg xmlns="http://www.w3.org/2000/svg" width="64" height="64" viewBox="0 0 64 64">
  <g id="Groupe_151898" data-name="Groupe 151898" transform="translate(-613 -2268)">
    <path id="pin_drop_FILL0_wght200_GRAD0_opsz40" d="M20,28.542a35.068,35.068,0,0,0,6.938-6.959,11.249,11.249,0,0,0,2.354-6.458,9.39,9.39,0,0,0-.959-4.437,9.515,9.515,0,0,0-2.354-2.959,8.826,8.826,0,0,0-3.021-1.646A10.144,10.144,0,0,0,20,5.583a10.144,10.144,0,0,0-2.958.5,8.826,8.826,0,0,0-3.021,1.646,9.515,9.515,0,0,0-2.354,2.959,9.39,9.39,0,0,0-.959,4.437,11.249,11.249,0,0,0,2.354,6.458A35.068,35.068,0,0,0,20,28.542Zm0,1.791a36.886,36.886,0,0,1-8.062-7.854,12.835,12.835,0,0,1-2.646-7.354,11.074,11.074,0,0,1,.958-4.75,10.463,10.463,0,0,1,2.5-3.417,10.756,10.756,0,0,1,3.458-2.083,10.509,10.509,0,0,1,7.584,0A10.756,10.756,0,0,1,27.25,6.958a10.463,10.463,0,0,1,2.5,3.417,11.074,11.074,0,0,1,.958,4.75,12.835,12.835,0,0,1-2.646,7.354A36.886,36.886,0,0,1,20,30.333ZM20,17.25a2.262,2.262,0,0,0,1.688-.708,2.318,2.318,0,0,0,.687-1.667A2.387,2.387,0,1,0,20,17.25ZM9.292,35.833V34.417H30.708v1.416ZM20,15.125Z" transform="translate(624.958 2279.999)" fill="#f5f3ef"/>
    <g id="Ellipse_9397" data-name="Ellipse 9397" transform="translate(613 2268)" fill="none" stroke="#fff" stroke-width="1">
      <circle cx="32" cy="32" r="32" stroke="none"/>
      <circle cx="32" cy="32" r="31.5" fill="none"/>
    </g>
  </g>
</svg>
