<svg xmlns="http://www.w3.org/2000/svg" width="299" height="51" viewBox="0 0 299 51">
  <g id="Groupe_151590" data-name="Groupe 151590" transform="translate(-452 -331.053)">
    <g id="Groupe_151256" data-name="Groupe 151256" transform="translate(452 333.042)">
      <path id="Rectangle_137222" data-name="Rectangle 137222" d="M14,0H38.909A12.091,12.091,0,0,1,51,12.091V14a0,0,0,0,1,0,0H0a0,0,0,0,1,0,0v0A14,14,0,0,1,14,0Z" transform="translate(4 0.01)" fill="#ff9d19"/>
      <path id="Rectangle_137223" data-name="Rectangle 137223" d="M0,0H51a0,0,0,0,1,0,0V1.909A12.091,12.091,0,0,1,38.909,14H14A14,14,0,0,1,0,0V0A0,0,0,0,1,0,0Z" transform="translate(4 35.01)" fill="#ff9d19"/>
      <rect id="Rectangle_137224" data-name="Rectangle 137224" width="59" height="13" rx="6.5" transform="translate(0 18.01)" fill="#d3342d"/>
    </g>
    <text id="Brazil_Burger" data-name="Brazil Burger" transform="translate(530 367.053)" fill="#fff" font-size="36" font-family="Avenir-Black, Avenir" font-weight="800"><tspan x="0" y="0">Brazil Burger</tspan></text>
  </g>
</svg>
