<svg xmlns="http://www.w3.org/2000/svg" width="64" height="64" viewBox="0 0 64 64">
  <g id="Groupe_151899" data-name="Groupe 151899" transform="translate(-651 -2058)">
    <path id="call_FILL0_wght200_GRAD0_opsz40" d="M31.458,33.125a18.882,18.882,0,0,1-8.646-2.25,31.858,31.858,0,0,1-7.979-5.813A31.236,31.236,0,0,1,9,17.1,18.882,18.882,0,0,1,6.75,8.458a1.764,1.764,0,0,1,.5-1.27,1.711,1.711,0,0,1,1.292-.521h3.791a1.908,1.908,0,0,1,1.229.416,1.813,1.813,0,0,1,.646,1.167l.875,3.792a2.527,2.527,0,0,1-.021,1.166,1.624,1.624,0,0,1-.562.875l-3.667,3.459A34.771,34.771,0,0,0,16.1,24.375a30.032,30.032,0,0,0,6.771,5l3.583-3.708a2.164,2.164,0,0,1,.917-.625A2.026,2.026,0,0,1,28.458,25l3.25.708a2.015,2.015,0,0,1,1.125.667,1.886,1.886,0,0,1,.417,1.25v3.708a1.714,1.714,0,0,1-1.792,1.792ZM10.083,16.25,13.5,13.083a.781.781,0,0,0,.188-.333.851.851,0,0,0,.02-.417l-.833-3.75a.563.563,0,0,0-.208-.375.676.676,0,0,0-.417-.125H8.583a.472.472,0,0,0-.312.125.418.418,0,0,0-.146.334,14.172,14.172,0,0,0,.521,3.625A29.544,29.544,0,0,0,10.083,16.25Zm21.334,15.5a.472.472,0,0,0,.312-.125.416.416,0,0,0,.146-.333V27.708a.69.69,0,0,0-.146-.437.606.606,0,0,0-.4-.229l-3.208-.667a.477.477,0,0,0-.313.021,1.546,1.546,0,0,0-.312.187L24.208,30a14.628,14.628,0,0,0,3.73,1.292A20.573,20.573,0,0,0,31.417,31.75ZM24.208,30ZM10.083,16.25Z" transform="translate(663 2070.103)" fill="#f5f3ef"/>
    <g id="Ellipse_9396" data-name="Ellipse 9396" transform="translate(651 2058)" fill="none" stroke="#fff" stroke-width="1">
      <circle cx="32" cy="32" r="32" stroke="none"/>
      <circle cx="32" cy="32" r="31.5" fill="none"/>
    </g>
  </g>
</svg>
